{"title":"Geordie Shore S11E10 1080P WEB-DL AAC2 0 H 264 ( FINAL )","uid":13077038,"size":1637981496,"categoryP":"video","categoryS":"hd___tv_shows","magnet":"?xt=urn:btih:cb97c65f9c1f60913291b46faebebec0c9db398a&amp;dn=Geordie+Shore+S11E10+1080P+WEB-DL+AAC2+0+H+264+%28+FINAL+%29&amp;tr=udp%3A%2F%2Ftracker.leechers-paradise.org%3A6969&amp;tr=udp%3A%2F%2Fzer0day.ch%3A1337&amp;tr=udp%3A%2F%2Fopen.demonii.com%3A1337&amp;tr=udp%3A%2F%2Ftracker.coppersurfer.tk%3A6969&amp;tr=udp%3A%2F%2Fexodus.desync.com%3A6969","seeders":5,"leechers":1,"uploader":"jmanwf","files":1,"time":1450861563,"description":"After Chloe dropped the L-bomb, Scott wants a word. There's a surprise arrival for one of the family and Marnie has some massive news.\r\n\r\n\r\n\r\nVideo\r\nID : 2\r\nFormat : AVC\r\nFormat/Info : Advanced Video Codec\r\nFormat profile :   \r\nFormat settings, CABAC : Yes\r\nFormat settings, ReFrames : 4 frames\r\nCodec ID : avc1\r\nCodec ID/Info : Advanced Video Coding\r\nDuration : 42mn 47s\r\nBit rate : 4 974 Kbps\r\nWidth : 1 920 pixels\r\nHeight : 1 080 pixels\r\nDisplay aspect ratio : 16:9\r\nFrame rate mode : Constant\r\nFrame rate : 25.000 fps\r\nColor space : YUV\r\nChroma subsampling : 4:2:0\r\nBit depth : 8 bits\r\nScan type : Progressive\r\nBits/(Pixel*Frame) : 0.096\r\nStream size : 1.49 GiB (97%)\r\nLanguage : English\r\nEncoded date : UTC 2015-12-23 01:38:12\r\nTagged date : UTC 2015-12-23 01:41:02\r\nColor range : Limited\r\nColor primaries : BT.709\r\nTransfer characteristics : BT.709\r\nMatrix coefficients : BT.709\r\n\r\nAudio\r\nID : 1\r\nFormat : AAC\r\nFormat/Info : Advanced Audio Codec\r\nFormat profile : LC\r\nCodec ID : 40\r\nDuration : 42mn 47s\r\nBit rate mode : Variable\r\nBit rate : 126 Kbps\r\nMaximum bit rate : 202 Kbps\r\nChannel(s) : 2 channels\r\nChannel positions : Front: L R\r\nSampling rate : 48.0 KHz\r\nCompression mode : Lossy\r\nStream size : 38.5 MiB (2%)\r\nLanguage : English\r\nEncoded date : UTC 2015-12-23 01:38:11\r\nTagged date : UTC 2015-12-23 01:41:02\r\n\r\nText\r\nID : 3-CC1\r\nFormat : EIA-608\r\nMuxing mode : Final Cut\r\nCodec ID : c608\r\nDuration : 42mn 20s\r\nBit rate mode : Constant\r\nStream size : 0.00 Byte (0%)\r\nLanguage : English\r\nEncoded date : UTC 2015-12-23 01:38:12\r\nTagged date : UTC 2015-12-23 01:38:18\r\n\r\n\r\n \nhttps://itunes.apple.com/gb/tv-season/1101/id1044567921?i=1047054891&amp;ign-mpt=uo%3D2","torrent":{"xt":"urn:btih:cb97c65f9c1f60913291b46faebebec0c9db398a","amp;dn":"Geordie+Shore+S11E10+1080P+WEB-DL+AAC2+0+H+264+%28+FINAL+%29","amp;tr":["udp%3A%2F%2Ftracker.leechers-paradise.org%3A6969","udp%3A%2F%2Fzer0day.ch%3A1337","udp%3A%2F%2Fopen.demonii.com%3A1337","udp%3A%2F%2Ftracker.coppersurfer.tk%3A6969","udp%3A%2F%2Fexodus.desync.com%3A6969"],"infoHash":"cb97c65f9c1f60913291b46faebebec0c9db398a","infoHashBuffer":{"type":"Buffer","data":[203,151,198,95,156,31,96,145,50,145,180,111,174,190,190,192,201,219,57,138]},"announce":[],"urlList":[]}}